<?xml version="1.0" encoding="UTF-8"?>
<svg xmlns="http://www.w3.org/2000/svg" version="1.1" viewBox="0 0 12 12">
  <!-- Generator: Adobe Illustrator 29.0.1, SVG Export Plug-In . SVG Version: 2.1.0 Build 192)  -->
  <g id="_图层_1" data-name="图层_1" focusable="false">
    <path d="M11.3,3.7c0-1.7-1.4-3.1-3.1-3.1s-1.2.2-1.7.5c-.3-.3-.7-.5-1.1-.5h-3.3c-.8,0-1.4.6-1.4,1.4v3.5h0v4.3c0,.8.6,1.4,1.4,1.4h7.8c.8,0,1.4-.6,1.4-1.4v-3.3c0-.4-.2-.8-.5-1.1.3-.5.5-1.1.5-1.7ZM4.8,8.9c0,.2-.2.4-.4.4h-1.4c-.2,0-.4-.2-.4-.4v-1.4c0-.2.2-.4.4-.4h1.4c.2,0,.4.2.4.4v1.4ZM4.8,4.4c0,.2-.2.4-.4.4h-1.4c-.2,0-.4-.2-.4-.4v-1.4c0-.2.2-.4.4-.4h1.4c.2,0,.4.2.4.4v1.4ZM9.3,8.9c0,.2-.2.4-.4.4h-1.4c-.2,0-.4-.2-.4-.4v-1.4c0-.2.2-.4.4-.4h1.4c.2,0,.4.2.4.4v1.4ZM8.2,4.8c-.6,0-1.1-.5-1.1-1.1s.5-1.1,1.1-1.1,1.1.5,1.1,1.1-.5,1.1-1.1,1.1Z"/>
  </g>
</svg>