<?xml version="1.0" encoding="UTF-8"?>
<svg xmlns="http://www.w3.org/2000/svg" version="1.1" viewBox="0 0 12 12">
  <!-- Generator: Adobe Illustrator 29.0.1, SVG Export Plug-In . SVG Version: 2.1.0 Build 192)  -->
  <defs>
    <style>
      .st0 {
        fill: #861fff;
      }

      .st1 {
        fill: #ff3270;
      }

      .st2 {
        fill: #ffd702;
      }

      .st3 {
        fill: #097eff;
      }
    </style>
  </defs>
  <g id="_图层_1" data-name="图层_1" focusable="false">
    <path d="M2.1.6c-.8,0-1.4.6-1.4,1.4v3.5h0v4.3c0,.8.6,1.4,1.4,1.4h7.8c.8,0,1.4-.6,1.4-1.4v-3.3c0-.4-.2-.8-.5-1.1.3-.5.5-1.1.5-1.7,0-1.7-1.4-3.1-3.1-3.1s-1.2.2-1.7.5c-.3-.3-.7-.5-1.1-.5h-3.3Z"/>
    <path class="st1" d="M3,7.1c-.2,0-.4.2-.4.4v1.4c0,.2.2.4.4.4h1.4c.2,0,.4-.2.4-.4v-1.4c0-.2-.2-.4-.4-.4h-1.4Z"/>
    <path class="st0" d="M7.5,7.1c-.2,0-.4.2-.4.4v1.4c0,.2.2.4.4.4h1.4c.2,0,.4-.2.4-.4v-1.4c0-.2-.2-.4-.4-.4h-1.4Z"/>
    <path class="st3" d="M3,2.6c-.2,0-.4.2-.4.4v1.4c0,.2.2.4.4.4h1.4c.2,0,.4-.2.4-.4v-1.4c0-.2-.2-.4-.4-.4h-1.4Z"/>
    <path class="st2" d="M8.2,2.6c-.6,0-1.1.5-1.1,1.1s.5,1.1,1.1,1.1,1.1-.5,1.1-1.1-.5-1.1-1.1-1.1Z"/>
  </g>
</svg>